{"glyphs":{":":{"x_min":0,"x_max":295,"ha":295,"o":"m 60 322 q 64 400 67 499 l 167 498 q 183 498 252 499 q 249 451 243 322 l 158 323 q 149 323 60 322 z m 48 0 q 52 65 55 177 l 155 175 q 171 175 240 177 q 236 124 231 0 l 146 1 q 137 1 48 0 z"},"$":{"x_min":0,"x_max":651,"ha":651,"o":"m 90 198 q 138 176 178 167 q 218 157 247 157 q 272 157 291 169 q 309 182 309 204 q 309 209 307 215 q 306 220 304 225 q 301 230 296 238 q 291 245 287 249 q 283 253 255 279 q 177 355 151 386 q 131 411 120 441 q 109 471 109 500 q 109 522 116 544 q 123 565 135 585 q 148 604 166 620 q 184 636 205 646 q 226 656 268 667 q 269 682 269 685 l 269 717 l 269 772 q 322 771 357 771 q 396 771 445 772 q 442 718 442 709 l 442 667 q 491 660 538 647 q 541 568 547 483 q 507 501 474 509 q 440 517 418 517 q 394 517 377 505 q 361 494 361 476 q 361 460 370 446 q 380 433 397 416 q 461 356 491 321 q 521 285 533 253 q 545 221 545 190 q 545 164 539 141 q 532 119 520 100 q 507 81 490 65 q 474 50 456 40 q 438 29 404 15 l 403 -47 q 403 -78 404 -107 q 351 -106 319 -106 q 288 -106 227 -107 q 229 -73 229 -21 l 229 0 q 190 5 163 11 q 137 17 98 29 q 95 152 90 198 z"},"?":{"x_min":0,"x_max":522,"ha":522,"o":"m 144 210 q 146 251 148 269 q 150 287 153 300 q 157 312 162 323 q 167 333 177 345 q 186 357 201 373 q 215 389 241 415 l 257 432 q 266 439 272 448 q 279 456 282 462 q 286 468 287 473 q 289 479 289 484 q 289 509 262 521 q 235 534 186 534 q 117 534 26 505 l 42 581 q 44 594 47 614 q 51 633 55 664 q 163 679 252 679 q 311 679 359 670 q 407 661 443 639 q 479 617 498 587 q 517 557 517 522 q 517 507 514 492 q 511 477 506 463 q 500 450 490 433 q 479 416 465 399 q 451 382 442 373 q 433 364 408 340 q 383 316 370 302 q 356 289 348 276 q 340 264 335 250 q 331 236 327 210 q 277 211 238 211 q 199 211 144 210 z m 121 0 l 126 59 l 132 138 q 133 143 134 164 q 196 163 235 163 q 278 163 335 164 q 330 108 329 69 q 327 30 325 0 q 259 1 227 1 q 192 1 121 0 z"},"<":{"x_min":0,"x_max":498,"ha":498,"o":"m 465 649 l 465 472 l 220 338 l 465 203 l 465 27 l 32 264 l 32 413 z"},"'":{"x_min":0,"x_max":228,"ha":228,"o":"m 68 472 q 71 528 71 582 l 72 667 q 113 666 136 666 q 153 666 196 667 q 186 576 178 472 q 145 473 129 473 q 104 473 68 472 z"},"=":{"x_min":0,"x_max":651,"ha":651,"o":"m 59 498 l 339 496 l 621 498 q 616 446 614 376 q 474 378 333 378 q 191 378 52 376 q 57 428 59 498 z m 48 310 q 188 309 329 309 q 470 309 610 310 q 605 258 604 188 q 464 190 323 190 q 181 190 42 188 q 46 241 48 310 z"},"a":{"x_min":0,"x_max":605,"ha":605,"o":"m 89 356 q 98 405 101 423 q 103 441 108 480 q 249 511 350 511 q 408 511 456 498 q 503 485 530 457 q 557 428 557 374 q 557 347 550 251 q 542 155 539 0 q 491 1 443 1 q 397 1 346 0 q 353 54 361 222 q 342 213 332 209 q 321 205 295 197 q 269 189 254 184 q 239 179 228 170 q 217 162 212 153 q 208 145 208 134 q 208 117 221 105 q 234 94 263 94 q 273 94 285 95 q 296 97 317 104 q 303 66 283 -6 q 241 -13 204 -13 q 143 -13 103 4 q 62 21 41 59 q 19 96 19 134 q 19 157 27 179 q 35 201 52 222 q 69 243 92 258 q 115 272 155 286 q 195 299 256 311 q 281 315 302 321 q 324 327 333 331 q 342 335 347 341 q 353 346 355 352 q 358 358 358 365 q 358 384 342 394 q 327 404 296 404 q 212 404 89 356 z"},"L":{"x_min":0,"x_max":586,"ha":586,"o":"m 44 0 q 56 115 62 188 q 72 321 77 452 q 82 583 82 667 q 148 666 200 666 q 234 666 299 667 l 288 490 l 273 213 l 271 146 q 355 144 380 144 q 509 144 575 147 l 564 0 q 436 1 319 1 q 162 1 44 0 z"},"3":{"x_min":0,"x_max":651,"ha":651,"o":"m 65 13 q 59 112 53 171 q 162 134 250 134 q 304 134 337 156 q 371 178 371 214 q 371 250 337 267 q 303 283 231 283 q 185 283 146 278 q 153 354 157 428 q 192 421 231 421 q 275 421 304 427 q 333 433 348 449 q 363 465 363 484 q 363 501 351 515 q 339 529 315 534 q 292 540 256 540 q 225 540 190 537 q 156 533 96 521 l 121 634 q 124 649 126 667 q 232 679 321 679 q 378 679 432 671 q 485 664 523 643 q 561 622 578 589 q 596 556 596 514 q 596 489 590 466 q 583 443 569 424 q 556 404 537 389 q 519 374 501 364 q 483 355 454 343 q 485 337 502 330 q 520 323 537 310 q 555 297 567 280 q 579 263 585 241 q 591 220 591 195 q 591 147 569 106 q 546 65 503 38 q 460 11 404 -1 q 348 -13 292 -13 q 236 -13 186 -7 q 136 -1 65 13 z"},";":{"x_min":0,"x_max":295,"ha":295,"o":"m 60 322 q 64 400 66 499 l 167 498 q 183 498 252 499 q 248 447 243 322 l 158 323 q 148 323 60 322 z m -14 -125 l 45 44 l 72 122 q 140 121 171 121 q 196 121 265 122 q 241 80 215 38 q 189 -4 164 -47 q 140 -90 118 -125 q 75 -124 54 -124 q 27 -124 -14 -125 z"},"J":{"x_min":0,"x_max":516,"ha":516,"o":"m -11 15 q -15 99 -22 178 q 33 157 67 150 q 101 143 130 143 q 163 143 189 154 q 208 164 220 178 q 235 199 240 226 q 250 275 254 398 q 259 520 259 609 l 259 667 q 337 666 363 666 q 396 666 474 667 l 459 451 q 454 355 451 247 q 449 164 443 133 q 437 105 426 86 q 417 68 402 54 q 384 37 358 24 q 324 7 286 -2 q 243 -12 195 -12 q 105 -12 -11 15 z"},"V":{"x_min":0,"x_max":753,"ha":753,"o":"m 226 0 l 208 60 l 89 403 l -5 667 q 62 666 113 666 q 145 666 213 667 q 224 623 230 601 q 239 571 264 495 l 335 264 q 346 228 362 169 l 384 226 l 555 599 q 559 609 565 622 q 570 635 583 667 q 653 666 696 666 q 723 666 803 667 q 753 574 690 450 l 521 116 q 497 67 467 0 q 385 1 350 1 q 317 1 226 0 z"},"\"":{"x_min":0,"x_max":397,"ha":397,"o":"m 68 472 q 71 528 71 582 l 72 667 q 113 666 136 666 q 153 666 196 667 q 186 576 178 472 q 145 473 129 473 q 104 473 68 472 z m 237 472 q 240 534 240 585 l 242 667 q 282 666 305 666 q 322 666 365 667 q 354 570 347 472 q 314 473 298 473 q 273 473 237 472 z"},"7":{"x_min":0,"x_max":651,"ha":651,"o":"m 79 0 q 108 55 135 104 q 163 154 240 300 l 327 464 q 335 481 356 522 q 313 523 290 523 q 188 523 68 517 q 73 582 75 667 l 600 667 l 593 512 l 476 288 l 402 141 q 372 80 335 0 z"},"S":{"x_min":0,"x_max":553,"ha":553,"o":"m 43 10 q 37 114 28 177 q 83 152 126 143 q 168 133 201 133 q 243 133 268 146 q 293 158 293 183 q 293 191 291 198 q 289 206 282 216 q 275 225 262 236 l 170 316 q 138 344 125 356 q 100 381 85 402 q 71 424 64 446 q 58 468 58 493 q 58 523 68 552 q 79 580 100 605 q 121 630 155 648 q 190 666 229 673 q 269 679 311 679 q 394 679 491 660 q 492 626 494 598 q 496 570 503 500 q 458 518 421 525 q 384 532 357 532 q 319 532 294 518 q 269 504 269 483 q 269 473 273 464 q 277 455 288 442 q 298 430 316 415 q 333 400 371 371 l 406 343 q 422 330 440 312 q 458 294 471 276 q 484 259 491 244 q 499 229 502 215 q 505 200 505 183 q 505 139 484 99 q 463 59 425 33 q 386 8 340 -2 q 294 -13 243 -13 q 164 -13 43 10 z"},"}":{"x_min":0,"x_max":432,"ha":432,"o":"m 199 220 q 185 227 179 231 q 173 236 168 243 q 163 250 158 260 q 153 271 151 287 q 149 302 149 320 q 149 352 154 411 q 158 469 158 484 q 158 506 153 520 q 147 533 139 541 q 130 548 113 553 q 96 558 67 558 q 68 579 71 615 q 73 652 73 667 q 124 667 161 663 q 198 659 230 650 q 262 640 279 626 q 295 611 306 587 q 317 563 317 531 q 317 513 311 429 q 305 346 305 324 q 305 283 322 266 q 339 249 361 245 q 358 222 357 194 q 344 190 333 184 q 318 174 311 165 q 304 156 300 141 q 296 126 294 99 q 293 86 292 16 q 290 -53 288 -77 q 284 -117 277 -137 q 270 -158 253 -176 q 237 -194 213 -205 q 186 -217 142 -223 q 99 -229 28 -229 q 31 -208 35 -120 q 64 -119 83 -114 q 102 -109 112 -100 q 122 -91 127 -79 q 132 -66 134 -36 q 135 -5 135 27 q 136 59 137 84 q 138 109 140 131 q 143 152 148 166 q 153 180 160 189 q 167 199 175 206 q 183 212 199 220 z"},"Z":{"x_min":0,"x_max":667,"ha":667,"o":"m 20 0 q 26 101 26 148 l 55 177 q 61 183 145 274 l 307 449 q 335 481 373 525 l 334 525 l 296 526 l 228 526 q 151 526 65 521 q 69 573 69 635 q 69 646 68 667 q 207 666 363 666 q 524 666 641 667 q 637 615 636 585 l 634 520 l 606 493 q 600 486 593 479 l 287 145 l 354 144 q 378 144 423 145 l 558 147 q 573 148 611 150 q 606 63 604 0 q 448 1 321 1 l 210 1 l 84 0 z"},"x":{"x_min":0,"x_max":635,"ha":635,"o":"m -10 0 l 102 148 l 184 261 l 31 499 q 102 498 153 498 q 218 498 259 499 l 311 387 q 316 376 325 355 q 363 419 414 499 q 458 498 518 498 q 574 498 625 499 l 547 396 q 524 366 449 263 q 494 186 613 0 q 558 1 504 1 q 438 1 387 0 q 355 68 338 101 q 321 134 310 161 l 294 134 q 287 122 271 98 l 209 0 q 157 1 107 1 q 49 1 -10 0 z"},")":{"x_min":0,"x_max":367,"ha":367,"o":"m 73 667 q 122 666 151 666 q 183 666 229 667 q 257 538 268 446 q 278 354 278 271 q 278 147 254 25 q 230 -98 182 -229 q 133 -228 102 -228 q 70 -228 27 -229 q 49 -157 58 -123 q 71 -72 81 -17 q 94 63 101 146 q 108 229 108 302 q 108 351 105 402 q 102 454 96 502 q 91 551 84 593 z"},"&":{"x_min":0,"x_max":767,"ha":767,"o":"m 531 354 q 581 353 618 353 q 655 353 700 354 q 700 326 698 305 q 696 284 691 258 q 686 233 677 209 q 669 186 661 169 q 653 152 640 129 q 671 90 699 59 q 728 27 749 0 q 680 1 638 1 q 582 1 531 0 l 493 48 q 469 33 452 23 q 435 14 410 5 q 385 -3 357 -8 q 329 -13 299 -13 q 224 -13 162 12 q 101 38 69 89 q 38 141 38 199 q 38 266 76 319 q 115 372 212 419 q 193 451 186 475 q 179 499 179 520 q 179 554 196 586 q 213 618 246 641 q 279 664 313 672 q 348 679 393 679 q 471 679 556 661 l 559 530 l 560 509 q 525 523 503 529 q 480 534 460 534 q 437 534 418 527 q 400 521 391 507 q 381 493 381 479 q 381 470 384 461 q 387 451 395 434 q 404 417 421 393 q 438 369 449 355 q 460 341 483 315 l 522 270 q 525 281 527 288 q 528 295 529 313 q 531 331 531 354 z m 402 162 q 384 186 355 219 q 326 252 295 291 q 279 281 270 274 q 261 268 253 261 q 246 254 240 244 q 234 233 231 223 q 228 213 228 203 q 228 181 240 163 q 252 145 273 136 q 293 127 318 127 q 336 127 351 131 q 366 136 376 142 q 387 149 402 162 z"},"_":{"x_min":0,"x_max":498,"ha":498,"o":"m -1 -50 l 499 -50 l 499 -156 l -1 -156 z"},"v":{"x_min":0,"x_max":589,"ha":589,"o":"m 177 0 l 125 160 l 9 499 q 64 498 112 498 q 162 498 206 499 q 214 465 239 381 q 263 296 292 180 l 305 221 q 308 228 328 283 l 406 499 q 458 498 505 498 q 554 498 606 499 l 539 354 l 413 65 l 386 0 q 329 1 285 1 q 237 1 177 0 z"},"O":{"x_min":0,"x_max":866,"ha":866,"o":"m 452 679 q 530 679 603 658 q 675 637 729 591 q 783 545 810 485 q 837 425 837 347 q 837 265 807 196 q 778 127 722 80 q 667 32 589 10 q 512 -13 429 -13 q 346 -13 271 9 q 195 31 139 79 q 83 128 60 188 q 36 247 36 320 q 36 427 86 508 q 135 588 233 634 q 330 679 452 679 z m 443 532 q 387 532 342 505 q 296 477 272 428 q 248 379 248 323 q 248 271 270 228 q 292 185 337 161 q 383 137 434 137 q 488 137 533 164 q 578 191 602 240 q 625 289 625 343 q 625 395 604 439 q 582 483 539 508 q 497 532 443 532 z"},"(":{"x_min":0,"x_max":372,"ha":372,"o":"m 119 -229 q 95 -142 80 -49 q 65 43 65 138 q 65 260 89 386 q 114 512 167 667 q 211 666 244 666 q 278 666 322 667 l 301 588 q 292 555 282 509 q 271 462 263 415 q 255 369 249 319 q 243 269 240 218 q 237 167 237 117 q 237 62 239 16 q 241 -30 246 -73 q 251 -115 256 -144 q 262 -172 274 -229 q 226 -228 200 -228 q 171 -228 119 -229 z"},"C":{"x_min":0,"x_max":670,"ha":670,"o":"m 626 163 q 620 134 612 82 q 604 31 601 2 q 496 -13 414 -13 q 335 -13 267 7 q 199 27 142 72 q 85 117 61 178 q 36 239 36 315 q 36 403 69 474 q 102 544 164 592 q 226 639 299 659 q 373 679 452 679 q 524 679 630 661 l 631 620 q 632 593 634 561 l 638 505 q 581 519 545 523 q 510 528 479 528 q 414 528 361 502 q 308 476 278 425 q 248 375 248 314 q 248 258 273 219 q 298 179 342 157 q 385 135 448 135 q 483 135 524 141 q 564 146 626 163 z"},"W":{"x_min":0,"x_max":1086,"ha":1086,"o":"m 180 0 l 164 90 q 158 122 146 179 l 66 543 l 37 667 q 99 666 137 666 q 180 666 236 667 q 250 587 257 550 l 298 353 q 311 290 327 198 l 343 267 l 401 492 l 441 667 q 508 666 554 666 q 604 666 667 667 l 698 461 l 740 199 l 759 271 q 765 290 771 309 q 776 328 795 384 l 854 572 l 882 667 q 941 666 980 666 q 1023 666 1077 667 l 888 99 l 857 0 q 784 1 729 1 q 672 1 602 0 l 591 67 l 548 300 q 544 321 542 343 q 539 365 534 412 l 517 336 q 511 311 504 285 l 425 0 q 352 1 303 1 q 251 1 180 0 z"},"A":{"x_min":0,"x_max":814,"ha":814,"o":"m -39 0 l 2 70 l 254 546 l 281 599 q 293 623 314 667 q 400 666 439 666 q 508 666 567 667 l 638 463 l 783 71 l 812 0 q 727 1 709 1 q 668 1 588 0 q 567 81 526 189 l 280 189 q 238 104 192 0 q 102 1 81 1 q 44 1 -39 0 z m 339 332 l 491 332 q 435 504 429 521 q 397 450 375 404 z"},"f":{"x_min":0,"x_max":396,"ha":396,"o":"m 64 0 q 74 94 87 358 l 27 358 q 29 374 31 423 q 34 472 35 494 l 104 494 q 104 514 104 528 q 104 573 108 598 q 113 624 125 641 q 138 659 160 673 q 183 687 212 692 q 240 697 271 697 q 299 697 332 693 q 365 689 411 677 q 413 600 417 548 q 369 566 331 566 q 304 566 289 554 q 274 542 274 509 l 275 494 l 387 494 q 383 438 379 358 l 278 358 l 262 0 q 204 1 162 1 q 120 1 64 0 z"},"Q":{"x_min":0,"x_max":882,"ha":882,"o":"m 859 167 q 850 129 844 95 l 830 16 q 750 3 644 -5 q 538 -13 454 -13 q 380 -13 314 0 q 249 12 193 43 q 138 75 102 120 q 66 164 51 215 q 36 266 36 323 q 36 400 64 465 q 92 530 146 577 q 200 625 277 652 q 354 679 455 679 q 532 679 604 657 q 676 636 728 592 q 780 547 808 487 q 836 426 836 367 q 836 333 828 299 q 820 266 806 238 q 792 209 775 188 q 758 167 734 143 q 779 149 801 154 q 822 158 859 167 z m 444 531 q 387 531 339 503 q 291 476 265 427 q 240 377 240 325 q 240 268 264 227 q 289 185 333 162 q 377 138 429 138 q 483 138 529 164 q 576 190 600 238 q 625 286 625 343 q 625 395 603 438 q 582 482 539 507 q 497 531 444 531 z"},"w":{"x_min":0,"x_max":908,"ha":908,"o":"m 174 0 q 66 344 9 499 q 57 498 105 498 q 150 498 191 499 l 261 243 l 272 192 l 305 293 l 375 499 q 422 498 472 498 q 524 498 563 499 l 631 225 l 637 192 l 645 217 q 648 226 660 260 l 743 499 q 791 498 832 498 q 867 498 924 499 l 745 77 l 713 0 q 663 1 627 1 q 589 1 527 0 l 493 141 q 483 182 458 295 q 386 86 353 0 q 302 1 270 1 q 233 1 174 0 z"},"-":{"x_min":0,"x_max":267,"ha":267,"o":"m -1 192 q 4 263 6 327 q 75 325 137 325 q 199 325 268 327 q 262 264 261 192 q 191 193 129 193 q 67 193 -1 192 z"},"E":{"x_min":0,"x_max":659,"ha":659,"o":"m 48 0 q 61 126 66 211 q 72 296 77 437 q 83 578 83 624 l 83 667 q 198 666 361 666 q 512 666 627 667 l 626 650 q 626 645 624 608 l 621 555 q 620 538 620 520 q 526 524 462 524 q 392 524 367 524 q 342 523 290 521 l 284 410 q 342 408 418 408 q 446 408 564 412 q 559 349 555 263 q 470 264 425 264 q 357 264 274 260 l 268 142 l 324 142 q 349 142 427 143 l 528 146 q 551 146 604 149 q 598 77 594 0 q 475 1 333 1 l 118 0 z"},"s":{"x_min":0,"x_max":483,"ha":483,"o":"m 39 9 q 37 31 35 54 q 33 78 29 120 l 25 155 q 72 136 106 127 q 141 118 169 118 q 193 118 208 123 q 223 127 230 135 q 237 144 237 152 q 237 160 232 168 q 227 175 208 188 q 168 218 138 242 q 107 266 92 284 q 77 303 69 324 q 61 346 61 369 q 61 409 84 444 q 107 479 152 495 q 197 511 262 511 q 330 511 436 494 l 443 356 q 384 380 330 380 q 291 380 274 372 q 256 364 256 348 q 256 343 258 338 q 260 333 265 328 q 271 322 278 317 q 286 311 315 291 q 344 270 361 257 q 388 235 403 217 q 417 199 425 178 q 432 157 432 134 q 432 100 415 71 q 398 42 365 22 q 331 2 291 -5 q 251 -13 209 -13 q 181 -13 138 -8 q 96 -3 39 9 z"},">":{"x_min":0,"x_max":498,"ha":498,"o":"m 32 27 l 32 204 l 278 338 l 33 473 l 32 649 l 465 412 l 465 264 z"},"l":{"x_min":0,"x_max":310,"ha":310,"o":"m 42 0 l 51 105 l 70 470 l 75 667 q 143 666 177 666 q 222 666 275 667 l 264 517 l 246 147 l 242 0 q 190 1 148 1 z"},"8":{"x_min":0,"x_max":651,"ha":651,"o":"m 181 342 q 153 355 139 365 q 126 375 114 388 q 101 402 93 418 q 84 435 81 453 q 78 470 78 488 q 78 535 99 573 q 121 611 163 636 q 205 661 252 670 q 300 679 353 679 q 403 679 450 668 q 497 656 531 632 q 564 607 580 576 q 595 544 595 500 q 595 479 591 460 q 587 440 578 424 q 569 408 557 394 q 544 380 530 370 q 516 360 482 343 q 514 334 530 327 q 547 320 562 308 q 578 295 589 279 q 600 262 604 243 q 609 224 609 203 q 609 154 585 109 q 562 65 520 38 q 479 11 424 -1 q 370 -13 312 -13 q 258 -13 207 -2 q 157 9 117 34 q 78 59 60 93 q 42 127 42 171 q 42 196 48 220 q 55 244 68 265 q 82 287 99 301 q 117 315 134 323 q 150 332 181 342 z m 341 544 q 303 544 280 523 q 258 501 258 470 q 258 452 268 436 q 277 420 295 413 q 312 405 333 405 q 369 405 393 426 q 417 447 417 480 q 417 509 396 527 q 376 544 341 544 z m 330 276 q 286 276 261 254 q 236 232 236 197 q 236 176 247 159 q 258 141 279 132 q 300 123 324 123 q 350 123 370 133 q 391 143 403 162 q 416 181 416 206 q 416 239 393 258 q 370 276 330 276 z"},"\\":{"x_min":0,"x_max":434,"ha":434,"o":"m 520 -229 l 457 -228 q 442 -228 401 -229 l 340 -83 l 9 667 q 44 666 63 666 q 80 666 118 667 l 191 500 l 467 -115 q 480 -143 520 -229 z"},"e":{"x_min":0,"x_max":592,"ha":592,"o":"m 526 147 q 520 118 502 6 q 445 -5 407 -9 q 368 -13 329 -13 q 271 -13 222 -5 q 173 3 137 24 q 102 44 78 75 q 54 105 42 147 q 29 189 29 234 q 29 296 54 356 q 79 416 118 450 q 158 483 209 498 q 260 512 314 512 q 370 512 420 499 q 471 486 506 454 q 541 421 556 381 q 571 340 571 293 q 571 266 564 231 l 222 231 q 222 223 222 217 q 222 164 259 139 q 297 114 351 114 q 383 114 425 122 q 466 129 526 147 z m 226 306 l 387 306 q 388 314 388 320 q 388 345 379 363 q 370 381 353 390 q 336 398 315 398 q 300 398 287 393 q 273 389 262 380 q 251 371 244 359 q 236 347 233 336 q 229 325 226 306 z"},"b":{"x_min":0,"x_max":654,"ha":654,"o":"m 41 0 q 55 154 65 358 q 75 563 75 667 q 132 666 181 666 q 229 666 276 667 q 265 590 260 499 q 305 506 329 509 q 353 511 376 511 q 451 511 505 488 q 558 464 592 408 q 625 352 625 271 q 625 189 593 121 q 562 53 508 20 q 455 -13 384 -13 q 358 -13 334 -7 q 310 -2 291 9 q 271 19 258 31 q 245 42 228 62 l 226 0 q 173 1 138 1 q 109 1 41 0 z m 247 362 q 243 281 243 263 q 243 217 251 190 q 259 163 281 147 q 304 131 333 131 q 362 131 384 147 q 406 163 417 194 q 429 225 429 259 q 429 311 401 342 q 374 373 322 373 q 290 373 247 362 z"},"%":{"x_min":0,"x_max":904,"ha":904,"o":"m 206 674 q 254 674 293 652 q 332 630 352 585 q 373 540 373 477 q 373 409 349 353 q 326 297 283 272 q 240 247 186 247 q 147 247 114 260 q 81 272 59 300 q 36 327 26 364 q 17 402 17 443 q 17 504 40 563 q 62 623 107 648 q 152 674 206 674 z m 201 582 q 183 582 168 564 q 153 546 146 510 q 138 475 138 439 q 138 388 151 363 q 165 338 188 338 q 217 338 234 381 q 251 423 251 481 q 251 530 237 556 q 222 582 201 582 z m 223 0 l 360 254 l 575 667 q 606 666 629 666 q 649 666 682 667 l 576 469 l 395 124 l 333 0 q 304 1 282 1 q 269 1 223 0 z m 720 419 q 769 419 806 400 q 843 381 866 337 q 889 293 889 225 q 889 179 877 134 q 866 89 841 55 q 816 21 780 7 q 743 -8 701 -8 q 651 -8 614 12 q 577 32 554 75 q 532 119 532 190 q 532 252 556 311 q 580 369 623 394 q 667 419 720 419 z m 716 326 q 697 326 683 308 q 669 289 662 256 q 654 223 654 186 q 654 157 657 141 q 660 124 666 111 q 672 99 682 91 q 692 83 705 83 q 714 83 722 87 q 729 91 738 103 q 747 114 753 135 q 760 156 764 178 q 767 200 767 226 q 767 273 754 300 q 741 326 716 326 z"},"m":{"x_min":0,"x_max":932,"ha":932,"o":"m 44 0 l 58 235 l 66 419 l 67 499 q 121 498 162 498 q 208 498 252 499 l 249 434 q 264 453 274 464 q 285 474 300 484 q 315 493 331 499 q 347 504 367 508 q 387 511 409 511 q 434 511 455 507 q 476 503 491 497 q 506 490 518 482 q 529 474 537 463 q 546 453 557 433 q 579 464 603 480 q 626 496 657 504 q 688 511 720 511 q 762 511 800 499 q 837 487 862 457 q 886 427 886 379 q 886 356 883 311 q 879 266 874 155 q 868 44 868 0 q 823 1 781 1 q 729 1 673 0 q 678 62 683 156 q 688 249 688 285 q 688 316 681 332 q 674 347 662 353 q 651 358 637 358 q 623 358 612 353 q 600 347 591 335 q 580 319 572 294 q 566 275 563 236 q 560 196 558 131 l 554 0 q 501 1 459 1 q 417 1 358 0 q 363 43 369 146 q 375 249 375 283 q 375 312 369 327 q 363 342 352 351 q 342 359 324 359 q 305 359 291 348 q 277 337 267 316 q 257 295 253 258 q 249 221 245 146 q 242 70 241 0 q 182 1 145 1 q 104 1 44 0 z"},"#":{"x_min":0,"x_max":651,"ha":651,"o":"m 136 187 l 92 187 l 22 186 q 34 241 44 304 l 158 303 l 172 379 l 59 378 l 69 428 q 74 451 81 496 l 194 496 l 226 667 q 256 666 288 666 q 322 666 350 667 l 316 495 l 361 495 l 405 495 l 437 667 q 467 666 499 666 q 534 666 561 667 l 528 496 l 641 496 q 627 434 618 378 l 505 379 l 491 303 l 604 304 q 592 251 582 186 l 469 187 l 435 0 q 404 1 373 1 q 337 1 311 0 l 347 188 l 258 188 q 254 170 224 0 q 193 1 161 1 q 126 1 100 0 z m 294 379 l 280 303 l 369 303 l 384 379 l 338 380 z"},",":{"x_min":0,"x_max":295,"ha":295,"o":"m -14 -125 l 45 44 l 72 122 q 140 121 171 121 q 196 121 265 122 q 241 80 215 38 q 189 -4 164 -47 q 140 -90 118 -125 q 75 -124 54 -124 q 27 -124 -14 -125 z"},"n":{"x_min":0,"x_max":680,"ha":680,"o":"m 38 0 q 52 111 60 245 q 67 379 69 499 q 127 498 170 498 q 219 498 265 499 l 260 432 q 276 450 288 461 q 299 471 317 481 q 334 491 354 498 q 373 504 396 508 q 419 511 445 511 q 480 511 513 504 q 547 496 569 482 q 592 468 607 448 q 622 427 627 403 q 632 379 632 354 q 632 335 628 273 l 620 97 q 617 44 617 0 q 568 1 525 1 q 467 1 419 0 q 423 44 428 132 q 433 220 433 255 q 433 311 412 332 q 391 354 358 354 q 330 354 305 335 q 280 317 266 281 q 252 246 247 165 q 241 84 239 0 q 190 1 144 1 q 95 1 38 0 z"},"h":{"x_min":0,"x_max":681,"ha":681,"o":"m 40 0 q 48 73 51 120 q 58 218 65 348 q 70 434 72 513 q 74 592 74 667 q 136 666 175 666 q 228 666 275 667 l 265 548 q 262 519 257 430 q 273 450 283 460 q 293 470 306 479 q 318 487 331 493 q 344 499 361 503 q 378 508 398 510 q 418 513 440 513 q 481 513 520 503 q 559 494 586 471 q 614 448 624 419 q 633 391 633 356 q 633 343 633 322 q 632 300 629 267 l 619 102 q 617 71 616 51 q 616 31 616 0 q 565 1 519 1 q 467 1 413 0 q 421 65 428 150 q 434 234 434 276 q 434 322 415 340 q 396 359 364 359 q 335 359 313 347 q 294 337 279 315 q 267 297 258 263 q 249 222 243 141 q 240 96 237 0 q 188 1 145 1 q 102 1 40 0 z"},"z":{"x_min":0,"x_max":523,"ha":523,"o":"m 26 0 q 28 54 30 146 q 50 164 64 178 l 261 369 q 141 368 55 361 q 57 384 58 429 l 59 474 l 59 499 q 118 498 281 498 q 412 498 484 499 q 481 477 477 343 q 458 328 445 315 l 251 132 q 298 131 387 131 q 421 131 467 133 q 463 97 458 0 q 395 1 243 1 q 94 1 26 0 z"},"B":{"x_min":0,"x_max":709,"ha":709,"o":"m 51 0 q 61 107 64 169 q 69 253 74 399 q 79 546 79 606 q 79 627 78 667 q 143 665 181 665 q 234 665 305 667 q 376 669 427 669 q 488 669 514 666 q 548 662 573 650 q 599 639 616 623 q 635 603 646 576 q 658 544 658 509 q 658 481 651 456 q 644 430 631 410 q 618 391 602 377 q 586 364 571 357 q 555 350 529 342 q 555 338 571 332 q 586 327 604 314 q 622 302 636 282 q 650 263 657 239 q 665 214 665 188 q 665 150 652 118 q 640 85 618 62 q 600 42 570 27 q 540 13 509 8 q 483 4 416 2 q 349 0 274 0 l 146 0 z m 269 407 l 338 407 q 372 407 386 408 q 401 410 415 415 q 428 419 438 429 q 448 439 452 452 q 457 465 457 478 q 457 496 448 510 q 439 524 420 531 q 401 538 362 538 l 274 538 z m 257 134 l 351 134 q 388 134 406 138 q 427 144 438 152 q 450 161 456 176 q 463 191 463 210 q 463 226 458 238 q 452 250 441 259 q 431 267 415 271 q 399 274 366 274 l 263 274 z"},"K":{"x_min":0,"x_max":765,"ha":765,"o":"m 48 0 q 58 91 62 151 q 69 258 77 443 q 83 572 83 625 l 83 667 q 165 666 195 666 q 216 666 301 667 l 278 302 l 266 0 l 160 1 q 138 1 48 0 z m 293 352 l 402 500 l 491 625 l 518 667 q 609 666 641 666 q 650 666 758 667 l 552 406 l 513 354 l 549 296 l 753 0 l 633 1 q 594 1 501 0 q 438 119 293 352 z"},"R":{"x_min":0,"x_max":701,"ha":701,"o":"m 48 0 q 57 86 62 155 q 68 224 72 314 q 76 405 78 506 q 80 607 80 667 q 141 665 178 665 q 217 665 273 667 q 330 669 383 669 q 445 669 494 665 q 531 661 561 650 q 591 640 611 624 q 632 609 646 590 q 659 571 667 545 q 674 520 674 490 q 674 458 666 429 q 658 400 640 375 q 622 350 595 332 q 568 313 519 294 l 544 232 q 555 207 567 180 l 633 37 q 637 27 648 0 q 568 1 540 1 q 505 1 425 0 q 417 25 396 94 q 388 123 382 139 q 371 173 348 236 l 297 374 q 324 369 349 369 q 385 369 414 380 q 443 391 458 413 q 473 436 473 460 q 473 481 461 497 q 450 513 426 521 q 402 529 352 529 q 334 529 316 528 q 298 527 273 527 q 267 427 262 283 q 257 139 256 0 q 174 1 150 1 q 122 1 48 0 z"},"T":{"x_min":0,"x_max":635,"ha":635,"o":"m 197 0 q 222 237 227 522 l 19 517 l 21 571 q 23 615 24 667 q 163 666 347 666 l 468 666 l 585 666 l 648 667 l 646 619 q 644 581 643 556 q 642 531 642 519 q 538 523 470 523 l 436 523 q 428 437 424 364 q 419 259 416 160 q 413 61 413 0 q 333 1 310 1 q 289 1 197 0 z"},"P":{"x_min":0,"x_max":638,"ha":638,"o":"m 51 0 l 61 125 l 73 369 l 79 542 q 79 570 79 598 q 79 619 79 667 q 143 665 182 665 q 220 665 285 667 q 351 669 396 669 q 461 669 493 661 q 524 653 550 635 q 575 617 592 593 q 608 569 617 539 q 625 508 625 477 q 625 411 593 357 q 562 303 504 276 q 446 249 375 249 q 348 249 313 255 q 310 277 299 322 q 288 366 281 388 q 303 383 326 383 q 375 383 400 407 q 424 431 424 465 q 424 481 418 494 q 413 507 401 516 q 390 524 375 526 q 361 529 343 529 q 326 529 307 528 l 266 525 q 259 431 256 315 q 250 105 250 63 l 250 0 l 152 1 q 132 1 51 0 z"},"|":{"x_min":0,"x_max":498,"ha":498,"o":"m 160 667 l 338 667 l 338 -167 l 160 -167 z"},"t":{"x_min":0,"x_max":426,"ha":426,"o":"m 406 144 q 397 103 391 63 l 380 4 q 332 -7 305 -10 q 278 -13 252 -13 q 211 -13 179 -6 q 146 1 125 20 q 104 39 96 63 q 88 88 88 115 q 88 120 88 133 q 89 145 92 188 l 103 357 l 26 357 q 29 391 31 446 l 32 491 l 113 491 q 116 514 121 589 l 204 606 q 227 611 302 629 q 298 565 297 491 l 408 491 q 404 390 404 357 l 292 357 l 286 235 q 285 208 285 200 q 285 176 290 161 q 295 145 308 138 q 321 131 337 131 q 349 131 361 133 q 374 135 406 144 z"},"M":{"x_min":0,"x_max":921,"ha":921,"o":"m 38 0 l 50 99 l 80 441 l 95 667 q 185 666 236 666 q 279 666 366 667 q 373 625 377 603 q 381 581 399 518 q 416 455 427 408 q 437 362 458 250 q 479 327 497 382 q 515 438 541 508 q 567 578 574 600 q 582 622 594 667 q 667 666 737 666 q 785 666 870 667 q 861 502 858 384 q 852 152 852 65 q 852 47 853 0 q 788 1 762 1 q 725 1 670 0 q 674 44 680 209 q 686 375 686 420 q 686 440 685 476 l 621 277 l 529 0 q 465 1 441 1 q 411 1 349 0 l 289 269 l 253 412 q 251 420 249 432 q 247 444 241 475 l 229 340 l 213 62 l 211 0 q 144 1 125 1 q 100 1 38 0 z"},"g":{"x_min":0,"x_max":659,"ha":659,"o":"m 82 -61 q 145 -82 193 -91 q 241 -99 276 -99 q 302 -99 323 -94 q 344 -88 357 -80 q 370 -71 379 -59 q 388 -46 393 -30 q 397 -15 399 6 q 401 26 403 62 q 384 45 370 35 q 356 25 335 15 q 315 6 291 1 q 267 -4 240 -4 q 178 -4 128 24 q 78 53 54 105 q 29 157 29 217 q 29 288 56 345 q 82 402 131 441 q 180 481 239 496 q 297 511 372 511 q 414 511 468 506 q 522 501 616 484 l 604 323 l 594 146 q 593 127 593 115 l 589 -44 q 588 -74 582 -102 q 577 -126 564 -148 q 551 -169 533 -186 q 512 -203 487 -213 q 461 -224 426 -231 q 388 -238 346 -238 q 323 -238 289 -236 q 254 -233 219 -229 q 183 -225 156 -220 q 130 -215 90 -206 l 87 -141 q 86 -123 82 -61 z m 417 362 q 387 368 363 368 q 319 368 287 351 q 255 334 238 301 q 220 267 220 231 q 220 205 229 182 q 239 160 260 147 q 282 134 306 134 q 341 134 368 159 q 396 185 406 229 q 416 272 417 362 z"},"j":{"x_min":0,"x_max":313,"ha":313,"o":"m 71 562 q 76 633 76 679 q 116 678 173 678 q 224 678 269 679 q 264 607 262 562 q 214 563 167 563 q 117 563 71 562 z m 263 499 l 253 250 l 248 20 q 247 -28 247 -37 q 247 -93 239 -132 q 230 -171 204 -195 q 179 -219 141 -228 q 103 -238 55 -238 q 26 -238 -16 -234 q -58 -231 -109 -222 q -112 -168 -122 -77 q -79 -90 -45 -90 q -19 -90 3 -80 q 20 -72 30 -60 q 40 -47 45 -25 q 50 -6 53 40 q 59 129 62 259 q 65 369 65 449 l 65 499 q 123 498 166 498 q 210 498 263 499 z"},"i":{"x_min":0,"x_max":312,"ha":312,"o":"m 71 561 q 74 619 74 652 q 74 662 73 679 q 132 678 172 678 q 228 678 269 679 q 268 664 267 653 l 264 593 q 263 579 263 561 q 215 562 170 562 q 125 562 71 561 z m 40 0 q 47 60 50 98 q 54 137 57 197 q 60 257 62 330 q 65 402 66 499 q 130 498 168 498 q 203 498 268 499 q 259 406 256 336 q 252 267 251 188 q 249 50 249 0 q 191 1 149 1 q 107 1 40 0 z"},"y":{"x_min":0,"x_max":591,"ha":591,"o":"m 2 -223 q -13 -106 -18 -78 q 13 -93 36 -98 q 60 -104 77 -104 q 95 -104 111 -99 q 127 -94 136 -87 q 146 -80 156 -65 q 167 -50 173 -40 q 178 -29 184 -10 l 92 268 l 13 499 q 86 498 115 498 q 149 498 208 499 q 218 461 243 369 q 268 276 279 224 q 286 195 292 151 l 302 190 q 307 206 313 226 q 319 246 329 273 l 361 362 l 414 499 q 475 498 506 498 q 533 498 604 499 l 509 286 l 339 -109 q 322 -143 307 -162 q 293 -180 276 -193 q 261 -205 243 -213 q 218 -225 189 -231 q 157 -238 124 -238 q 108 -238 83 -236 q 59 -233 43 -231 q 28 -229 2 -223 z"},"@":{"x_min":0,"x_max":872,"ha":872,"o":"m 641 485 l 631 444 l 607 324 q 605 313 604 304 q 603 295 602 291 q 602 287 602 285 q 602 273 609 267 q 615 261 625 261 q 647 261 676 282 q 705 304 723 342 q 741 380 741 423 q 741 457 729 485 q 717 514 698 532 q 679 550 653 564 q 626 578 593 585 q 541 597 485 597 q 416 597 353 579 q 291 562 241 520 q 192 478 165 419 q 138 359 138 296 q 138 245 156 199 q 174 154 212 124 q 250 94 300 82 q 350 69 404 69 q 465 69 513 79 q 561 89 609 117 q 616 78 625 41 q 578 14 522 0 q 467 -13 399 -13 q 323 -13 255 7 q 186 27 140 66 q 95 105 72 163 q 49 221 49 287 q 49 369 82 446 q 116 523 175 576 q 234 629 317 654 q 399 679 489 679 q 556 679 619 665 q 682 650 731 616 q 779 582 804 530 q 830 479 830 422 q 830 371 808 323 q 786 274 747 238 q 708 202 660 184 q 611 165 563 165 q 528 165 502 177 q 476 189 468 214 q 448 196 441 191 q 435 186 420 179 q 406 173 389 169 q 372 165 355 165 q 306 165 274 199 q 242 233 242 290 q 242 343 273 398 q 304 453 358 476 q 413 500 493 500 q 557 500 641 485 z m 496 402 q 479 406 465 406 q 436 406 414 393 q 392 380 379 354 q 367 328 367 304 q 367 281 378 269 q 390 256 408 256 q 424 256 439 265 q 455 274 465 291 q 475 307 481 331 q 487 354 496 402 z"},".":{"x_min":0,"x_max":295,"ha":295,"o":"m 48 0 q 52 65 55 177 l 155 175 q 171 175 240 177 q 236 124 231 0 l 146 1 q 137 1 48 0 z"},"p":{"x_min":0,"x_max":657,"ha":657,"o":"m 28 -229 q 38 -128 44 -29 q 55 142 59 257 q 63 373 63 486 q 163 501 219 506 q 275 511 331 511 q 401 511 460 497 q 520 482 555 445 q 591 408 609 356 q 627 305 627 249 q 627 198 613 150 q 598 102 568 63 q 538 24 498 6 q 459 -13 411 -13 q 387 -13 361 -8 q 335 -3 312 5 q 290 14 274 23 q 259 32 236 49 l 230 -87 q 227 -181 227 -229 q 170 -228 130 -228 q 95 -228 28 -229 z m 253 361 q 250 339 248 325 q 247 312 245 288 q 244 264 244 250 q 244 210 256 183 q 269 156 291 141 q 313 126 338 126 q 365 126 388 141 q 410 157 423 188 q 437 218 437 257 q 437 309 409 341 q 381 373 329 373 q 295 373 253 361 z"},"X":{"x_min":0,"x_max":685,"ha":685,"o":"m -45 0 q 12 72 94 182 q 175 291 220 355 l 163 453 q 146 479 116 526 l 67 602 q 49 630 27 667 q 90 666 156 666 q 208 666 268 667 q 289 624 318 574 q 347 525 364 488 q 384 522 417 572 q 451 622 477 667 q 528 666 589 666 q 629 666 702 667 q 667 616 597 524 q 528 432 466 342 q 545 207 681 0 q 604 1 565 1 q 500 1 438 0 q 418 39 384 99 q 350 159 324 209 q 305 175 262 113 q 218 51 185 0 q 114 1 72 1 q 26 1 -45 0 z"},"*":{"x_min":0,"x_max":498,"ha":498,"o":"m 92 407 l 175 488 l 71 523 q 77 533 94 567 q 111 602 117 617 l 218 568 l 215 679 q 246 678 269 678 q 294 678 321 679 l 305 567 l 412 614 q 427 566 444 520 l 336 487 l 410 406 l 373 376 q 357 364 326 338 l 253 436 l 167 338 q 135 371 92 407 z"},"Y":{"x_min":0,"x_max":645,"ha":645,"o":"m 190 0 q 195 40 202 134 q 208 229 208 268 l -15 667 q 59 666 106 666 q 152 666 216 667 q 236 618 269 550 q 303 482 324 429 q 380 528 414 584 q 448 639 463 667 q 525 666 582 666 q 612 666 692 667 l 478 351 q 414 256 414 251 l 413 247 l 413 242 l 413 237 l 409 163 q 406 89 404 0 q 335 1 297 1 q 259 1 190 0 z"},"c":{"x_min":0,"x_max":506,"ha":506,"o":"m 459 156 q 457 136 447 84 l 435 6 q 358 -13 285 -13 q 231 -13 191 -2 q 144 11 106 43 q 68 76 50 122 q 29 175 29 241 q 29 301 50 357 q 70 414 110 450 q 150 486 199 499 q 248 511 307 511 q 342 511 377 508 q 412 504 464 492 l 465 480 q 466 463 467 445 q 468 426 470 387 l 473 343 q 403 368 350 368 q 311 368 282 353 q 253 338 239 310 q 225 282 225 245 q 225 207 238 182 q 250 156 277 144 q 305 131 337 131 q 354 131 377 134 q 399 138 416 142 q 433 146 459 156 z"},"!":{"x_min":0,"x_max":355,"ha":355,"o":"m 86 249 q 93 421 98 667 q 160 666 201 666 q 233 666 298 667 q 289 577 266 249 q 216 250 186 250 q 141 250 86 249 z m 63 0 q 67 45 68 70 q 70 94 73 170 q 135 169 178 169 q 215 169 276 170 q 269 60 268 0 q 193 1 168 1 q 132 1 63 0 z"},"/":{"x_min":0,"x_max":443,"ha":443,"o":"m -133 -229 l -32 -43 l 248 478 l 347 667 q 387 666 404 666 q 424 666 460 667 l 55 -100 q 33 -142 -10 -229 q -53 -228 -68 -228 q -78 -228 -133 -229 z"},"[":{"x_min":0,"x_max":372,"ha":372,"o":"m 86 667 q 138 666 218 666 q 297 666 350 667 q 348 653 346 614 q 344 575 344 557 q 316 558 293 558 q 270 558 243 557 l 228 310 l 216 67 l 210 -119 q 238 -121 260 -121 q 283 -121 310 -119 q 309 -133 307 -168 q 305 -203 304 -229 q 252 -228 173 -228 q 95 -228 42 -229 q 60 -2 70 214 q 81 431 86 667 z"},"6":{"x_min":0,"x_max":651,"ha":651,"o":"m 375 425 q 400 430 423 430 q 479 430 524 408 q 569 386 592 340 q 615 293 615 237 q 615 199 604 164 q 594 129 574 100 q 555 70 526 47 q 497 24 464 12 q 431 0 394 -7 q 356 -13 318 -13 q 230 -13 165 17 q 100 46 70 98 q 41 149 41 211 q 41 247 49 290 q 57 332 84 391 q 112 450 160 526 q 208 603 258 667 l 508 667 q 434 581 409 551 q 375 507 344 461 q 313 415 293 375 q 273 336 259 298 q 250 275 247 256 q 243 236 243 219 q 243 196 252 175 q 262 154 280 142 q 299 130 325 130 q 349 130 368 141 q 387 153 396 173 q 405 193 405 216 q 405 255 377 273 q 348 292 320 292 q 311 292 293 289 q 305 307 335 359 z"},"r":{"x_min":0,"x_max":430,"ha":430,"o":"m 42 0 l 58 217 l 62 341 q 63 375 63 410 q 63 446 62 499 q 121 498 156 498 q 196 498 249 499 l 247 443 q 266 465 278 475 q 291 486 306 494 q 322 503 339 507 q 356 511 375 511 q 392 511 414 506 q 414 453 416 418 l 419 343 q 393 351 369 351 q 340 351 319 343 q 297 334 281 317 q 265 299 255 273 q 245 248 241 191 q 237 135 237 63 q 237 38 239 0 q 192 1 144 1 q 97 1 42 0 z"},"2":{"x_min":0,"x_max":651,"ha":651,"o":"m 38 0 q 40 23 41 61 q 42 99 44 138 q 95 180 137 219 q 206 282 259 338 q 302 382 331 419 q 347 441 353 456 q 356 466 356 477 q 356 491 350 502 q 344 512 330 520 q 316 527 297 531 q 277 536 252 536 q 218 536 180 530 q 143 524 77 507 l 90 577 q 94 598 103 658 q 231 679 343 679 q 395 679 441 670 q 488 661 525 638 q 562 616 581 587 q 600 557 600 523 q 600 500 594 479 q 589 458 574 429 q 556 394 528 360 q 488 309 435 254 q 384 202 312 138 l 366 137 q 385 137 442 138 q 498 139 520 140 q 542 141 574 145 q 573 121 570 86 q 566 51 563 0 q 441 1 309 1 q 148 1 38 0 z"},"{":{"x_min":0,"x_max":432,"ha":432,"o":"m 201 218 q 213 212 220 207 q 227 202 233 193 q 240 184 244 173 q 248 162 249 148 q 251 133 251 114 q 251 83 244 -3 q 242 -29 242 -49 q 242 -74 248 -87 q 254 -100 266 -106 q 277 -113 294 -117 q 312 -120 334 -120 q 333 -129 332 -137 q 332 -145 331 -166 l 327 -229 q 272 -229 238 -225 q 177 -218 143 -201 q 117 -188 101 -163 q 83 -132 83 -91 q 83 -77 86 -32 l 92 57 q 96 101 96 115 q 96 131 93 144 q 89 156 85 164 q 80 171 72 178 q 63 185 56 188 q 48 191 39 193 q 42 216 42 244 q 58 248 70 256 q 83 265 90 275 q 97 284 101 300 q 104 313 106 340 q 107 350 108 406 l 112 513 q 115 548 120 566 q 124 582 132 595 q 140 608 151 619 q 163 630 178 638 q 194 647 217 653 q 244 660 281 664 q 317 667 372 667 q 369 646 365 558 q 331 556 314 551 q 298 546 289 539 q 280 532 275 520 q 269 509 267 489 q 265 469 265 420 q 264 372 263 349 q 262 327 260 306 q 257 286 252 272 q 248 258 241 248 q 234 239 226 232 q 218 226 201 218 z"},"9":{"x_min":0,"x_max":651,"ha":651,"o":"m 143 0 q 186 52 224 100 q 262 148 300 203 q 338 258 358 293 q 378 328 391 359 q 403 391 407 410 q 412 430 412 449 q 412 475 403 495 q 394 515 375 525 q 356 536 334 536 q 296 536 269 511 q 243 486 243 446 q 243 422 253 406 q 263 389 283 380 q 303 371 324 371 q 336 371 359 376 q 312 310 265 236 q 248 234 236 234 q 204 234 166 246 q 128 258 99 283 q 70 308 55 346 q 40 385 40 428 q 40 486 65 537 q 91 587 136 620 q 182 652 236 666 q 290 679 353 679 q 410 679 463 664 q 517 649 551 618 q 584 586 601 543 q 618 499 618 458 q 618 430 611 394 q 604 358 589 319 q 574 279 548 229 q 521 178 486 125 q 450 72 397 0 z"}," ":{"x_min":0,"x_max":250,"ha":250,"o":""},"I":{"x_min":0,"x_max":342,"ha":342,"o":"m 51 0 q 79 392 79 604 l 79 667 q 164 666 193 666 q 206 666 298 667 q 289 557 284 458 q 277 322 274 203 q 271 84 271 0 l 171 1 q 142 1 51 0 z"},"H":{"x_min":0,"x_max":818,"ha":818,"o":"m 51 0 l 70 267 l 79 461 l 81 547 q 82 585 82 620 l 82 667 q 158 666 196 666 q 226 666 300 667 q 288 526 285 419 l 550 419 q 553 459 555 528 q 557 596 557 621 q 557 634 556 667 l 672 666 q 690 666 774 667 q 757 416 752 293 q 747 171 747 0 l 641 1 q 617 1 526 0 q 539 116 543 271 l 277 271 l 269 0 l 155 1 q 134 1 51 0 z"},"4":{"x_min":0,"x_max":651,"ha":651,"o":"m 301 0 q 306 43 309 92 q 312 141 314 170 l 261 169 l 221 169 l 37 167 l 39 182 q 39 187 40 213 l 44 306 q 44 319 44 333 q 94 393 159 483 q 225 572 284 667 q 359 666 419 666 q 476 666 535 667 q 527 563 522 464 q 518 365 517 314 q 541 313 572 313 q 597 313 601 314 q 605 314 620 315 q 618 256 618 191 l 618 168 q 589 170 532 170 l 512 170 q 508 123 508 0 q 459 1 408 1 q 359 1 301 0 z m 342 307 l 352 527 q 320 477 299 447 q 279 417 270 405 l 199 307 z"},"~":{"x_min":0,"x_max":665,"ha":665,"o":"m 176 199 l 91 271 q 99 292 107 309 q 115 326 128 346 q 142 366 153 378 q 165 389 179 398 q 194 407 210 412 q 227 417 245 417 q 257 417 271 415 q 284 412 313 401 l 391 372 q 401 368 411 365 q 420 363 427 363 q 446 363 461 377 q 477 392 491 419 l 576 348 q 559 306 546 284 q 534 262 514 243 q 495 223 471 213 q 448 204 419 204 q 409 204 397 205 q 386 207 370 212 q 354 217 346 220 q 337 224 310 235 q 283 246 267 251 q 250 256 238 256 q 222 256 208 244 q 193 232 176 199 z"},"D":{"x_min":0,"x_max":773,"ha":773,"o":"m 50 0 q 61 111 64 178 q 70 278 76 436 q 81 557 81 609 l 81 667 q 138 665 179 665 q 219 665 284 667 q 349 669 406 669 q 472 669 521 662 q 570 654 613 629 q 656 605 685 565 q 713 526 729 473 q 744 420 744 364 q 744 309 732 258 q 720 207 699 166 q 678 125 650 95 q 622 65 586 44 q 559 29 532 20 q 504 11 457 6 q 404 0 337 0 l 140 1 q 112 1 50 0 z m 261 147 q 288 145 317 145 q 367 145 406 153 q 445 162 474 191 q 504 220 518 265 q 532 310 532 357 q 532 416 511 455 q 490 495 455 511 q 420 526 360 526 q 325 526 277 523 z"},"^":{"x_min":0,"x_max":498,"ha":498,"o":"m 163 340 l 7 340 l 150 671 l 347 671 l 490 340 l 335 340 l 249 551 z"},"0":{"x_min":0,"x_max":651,"ha":651,"o":"m 344 679 q 422 679 486 648 q 549 618 584 543 q 620 469 620 368 q 620 289 598 211 q 576 133 539 86 q 501 39 440 13 q 379 -13 310 -13 q 251 -13 199 6 q 147 25 108 68 q 69 111 54 170 q 38 229 38 296 q 38 377 60 455 q 82 533 121 583 q 160 632 219 656 q 278 679 344 679 z m 340 535 q 317 535 299 521 q 277 504 265 476 q 249 441 241 396 q 232 347 232 288 q 232 236 242 202 q 252 168 272 149 q 292 131 318 131 q 333 131 346 137 q 360 144 376 163 q 391 182 403 217 q 415 253 420 292 q 425 331 425 371 q 425 454 402 494 q 379 535 340 535 z"},"F":{"x_min":0,"x_max":614,"ha":614,"o":"m 51 0 q 61 99 65 159 q 71 248 76 404 q 82 559 82 613 l 82 667 q 229 666 355 666 q 482 666 600 667 q 592 554 592 520 l 550 521 l 516 521 l 481 522 l 385 522 q 369 522 288 521 l 284 407 l 354 406 l 434 406 q 468 406 538 407 q 533 315 533 263 q 454 265 416 265 q 352 265 275 263 l 271 87 l 270 21 l 270 0 l 165 1 q 153 1 51 0 z"},"`":{"x_min":0,"x_max":500,"ha":500,"o":"m 349 568 q 298 569 276 569 q 245 569 199 568 q 185 586 170 605 q 156 624 151 629 l 112 677 q 173 676 211 676 q 260 676 309 677 z"},"k":{"x_min":0,"x_max":624,"ha":624,"o":"m 41 0 q 47 62 50 102 q 54 155 58 235 l 63 351 q 67 429 68 501 q 70 587 70 667 q 139 666 173 666 q 212 666 267 667 q 255 539 246 349 q 237 159 237 0 q 180 1 141 1 q 96 1 41 0 z m 256 280 l 340 401 l 403 499 q 470 498 505 498 q 553 498 618 499 l 521 372 q 487 329 451 278 q 485 215 616 0 q 559 1 513 1 q 466 1 405 0 l 375 61 q 359 93 347 114 q 343 123 280 234 z"},"u":{"x_min":0,"x_max":657,"ha":657,"o":"m 589 0 q 534 1 497 1 q 451 1 404 0 l 404 67 q 386 45 374 34 q 362 23 347 15 q 333 6 315 0 q 297 -6 274 -9 q 251 -13 227 -13 q 188 -13 154 -4 q 120 5 94 27 q 67 48 58 76 q 48 103 48 139 q 48 148 50 167 l 58 277 q 61 338 64 413 q 66 458 66 499 q 126 498 169 498 q 212 498 264 499 l 249 312 q 245 270 245 255 q 245 239 245 234 q 245 183 265 165 q 286 146 315 146 q 327 146 338 150 q 350 153 361 160 q 370 166 378 174 q 386 184 393 197 q 400 213 404 231 q 410 257 413 297 q 415 326 418 396 l 422 499 q 485 498 525 498 q 571 498 617 499 q 605 375 599 263 q 593 151 589 0 z"},"]":{"x_min":0,"x_max":372,"ha":372,"o":"m 264 -229 q 186 -228 132 -228 q 78 -228 0 -229 q 2 -214 4 -176 q 6 -137 6 -119 q 32 -120 57 -120 q 82 -120 107 -119 q 131 226 139 557 q 112 559 89 559 q 67 559 40 557 q 41 571 43 606 q 45 641 45 667 q 101 666 176 666 q 251 666 308 667 l 289 399 l 282 280 l 271 4 z"},"U":{"x_min":0,"x_max":777,"ha":777,"o":"m 78 667 q 154 666 186 666 q 225 666 290 667 l 275 459 q 271 400 268 349 q 266 298 266 278 q 266 241 271 216 q 277 191 291 174 q 305 157 330 148 q 355 139 383 139 q 406 139 427 145 q 443 149 456 157 q 467 164 475 174 q 485 186 493 203 q 501 220 505 246 q 509 273 517 368 q 523 449 526 517 q 529 582 532 667 q 605 666 648 666 l 747 667 l 723 320 q 723 310 723 304 q 721 202 710 160 q 700 119 675 88 q 651 57 604 32 q 557 8 498 -2 q 438 -13 377 -13 q 322 -13 271 -5 q 225 3 187 18 q 149 33 122 53 q 96 71 83 91 q 69 110 61 137 q 52 167 52 202 q 52 213 53 237 q 54 261 58 305 l 64 383 q 66 414 69 474 z"},"o":{"x_min":0,"x_max":649,"ha":649,"o":"m 333 511 q 394 511 450 493 q 506 474 544 439 q 583 404 601 358 q 620 311 620 257 q 620 205 603 158 q 587 111 548 70 q 509 28 448 8 q 388 -13 321 -13 q 259 -13 202 5 q 145 23 106 58 q 68 93 49 141 q 29 189 29 243 q 29 296 48 344 q 67 393 108 431 q 148 470 208 490 q 269 511 333 511 z m 330 368 q 299 368 274 352 q 250 335 238 304 q 225 273 225 237 q 225 183 252 155 q 279 126 319 126 q 350 126 375 142 q 399 159 411 191 q 424 223 424 259 q 424 290 414 314 q 404 338 382 353 q 360 368 330 368 z"},"N":{"x_min":0,"x_max":821,"ha":821,"o":"m 49 0 l 59 103 l 78 450 l 83 590 l 83 667 q 159 666 217 666 q 259 666 334 667 l 543 288 l 572 232 q 577 314 583 462 q 588 610 588 667 q 648 666 685 666 q 701 666 780 667 l 769 521 l 747 117 l 744 0 q 680 1 625 1 q 579 1 498 0 q 473 48 460 69 l 378 208 q 338 277 304 339 q 281 379 257 426 l 247 195 l 242 0 q 182 1 150 1 q 123 1 49 0 z"},"+":{"x_min":0,"x_max":651,"ha":651,"o":"m 46 283 q 51 334 52 404 l 166 403 l 271 403 l 280 625 q 305 624 344 624 q 382 624 407 625 l 395 403 l 527 403 l 614 404 q 610 353 608 283 l 521 283 l 389 284 q 387 256 379 62 q 353 63 316 63 q 279 63 252 62 l 265 284 l 148 284 z"},"G":{"x_min":0,"x_max":780,"ha":780,"o":"m 441 389 q 508 388 568 388 q 672 388 730 389 q 724 322 718 199 q 711 77 709 14 q 653 4 616 -1 q 580 -5 528 -9 q 476 -13 436 -13 q 369 -13 305 -2 q 241 9 191 33 q 140 57 106 98 q 73 139 54 195 q 36 251 36 311 q 36 410 85 495 q 135 580 227 630 q 320 679 466 679 q 573 679 703 653 q 703 582 709 495 q 674 506 653 512 q 631 519 602 524 q 573 529 547 531 q 521 534 500 534 q 446 534 398 518 q 351 503 316 471 q 282 439 265 395 q 248 350 248 301 q 248 250 267 211 q 287 172 329 151 q 372 131 424 131 q 467 131 519 144 l 524 250 q 493 251 487 251 l 435 250 l 438 311 q 439 320 440 339 q 441 357 441 389 z"},"q":{"x_min":0,"x_max":657,"ha":657,"o":"m 382 -229 l 394 -73 q 396 -38 402 58 q 380 38 366 27 q 352 16 331 7 q 310 -3 287 -8 q 264 -13 239 -13 q 173 -13 125 20 q 77 53 53 106 q 29 159 29 221 q 29 268 43 313 q 56 358 82 397 q 108 436 153 462 q 198 489 258 500 q 318 511 383 511 q 484 511 618 489 q 606 367 600 263 q 593 160 589 57 q 585 -46 582 -229 q 536 -228 484 -228 q 441 -228 382 -229 z m 411 362 q 382 368 361 368 q 315 368 284 350 q 252 332 236 297 q 220 261 220 220 q 220 194 229 173 q 237 151 256 139 q 275 126 298 126 q 316 126 333 134 q 351 141 365 156 q 379 170 388 193 q 398 216 403 253 q 407 290 411 362 z"},"d":{"x_min":0,"x_max":660,"ha":660,"o":"m 593 0 q 541 1 506 1 q 467 1 411 0 l 414 62 q 395 43 381 32 q 367 21 344 10 q 322 -1 297 -7 q 271 -13 244 -13 q 197 -13 156 4 q 115 21 86 53 q 58 84 43 128 q 29 171 29 217 q 29 283 55 346 q 81 409 123 445 q 165 481 217 496 q 270 511 331 511 q 371 511 425 504 q 429 562 431 667 q 491 666 529 666 q 578 666 628 667 q 614 521 604 312 q 593 104 593 0 z m 418 377 q 393 383 370 383 q 322 383 289 365 q 256 346 238 307 q 220 269 220 231 q 220 203 230 180 q 240 157 261 144 q 282 131 307 131 q 334 131 356 146 q 378 161 392 190 q 406 220 411 260 q 417 300 418 377 z"},"1":{"x_min":0,"x_max":651,"ha":651,"o":"m 245 0 q 251 76 261 245 q 271 414 272 486 q 254 475 237 464 q 220 453 163 412 q 166 454 168 510 q 170 565 170 592 q 195 606 227 625 q 258 645 265 650 q 272 655 287 667 q 330 666 387 666 q 440 666 497 667 l 487 558 l 466 196 l 461 63 l 461 0 q 419 1 360 1 q 291 1 245 0 z"},"5":{"x_min":0,"x_max":651,"ha":651,"o":"m 78 10 l 74 59 q 73 83 71 103 q 69 122 64 166 q 166 137 232 137 q 268 137 298 148 q 328 160 344 180 q 360 201 360 225 q 360 261 327 279 q 294 297 224 297 q 192 297 162 295 q 132 293 81 286 l 106 602 q 107 625 109 667 q 231 666 345 666 q 488 666 584 667 q 580 616 579 586 l 576 520 l 511 522 l 481 522 l 434 522 q 403 523 358 523 q 343 523 309 522 l 299 410 q 332 413 350 413 q 426 413 484 388 q 542 364 569 321 q 596 277 596 223 q 596 169 568 120 q 541 71 493 42 q 446 13 383 0 q 320 -13 254 -13 q 229 -13 195 -10 q 161 -6 138 -2 q 114 1 78 10 z"}}}
